# AST/ASF file generated using VICON BodyLanguage
# -----------------------------------------------
:version 1.10
:name VICON
:units
  mass 1.0
  length 0.45
  angle deg
:documentation
   .ast/.asf automatically generated from VICON data using
   VICON BodyBuilder and BodyLanguage model FoxedUp or BRILLIANT.MOD
:root
   order TX TY TZ RX RY RZ
   axis XYZ
   position 0 0 0  
   orientation 0 0 0 
:bonedata
  begin
     id 1 
     name lhipjoint
     direction 0.630082 -0.636569 0.44472 
     length 2.82754 
     axis 0 0 0  XYZ
  end
  begin
     id 2 
     name lfemur
     direction 0.34202 -0.939693 0  
     length 7.26371  
     axis 0 0 20  XYZ
    dof rx ry rz
    limits (-160.0 20.0)
           (-70.0 70.0)
           (-60.0 70.0)
  end
  begin
     id 3 
     name ltibia
     direction 0.34202 -0.939693 0   
     length 7.88616   
     axis 0 0 20   XYZ
    dof rx
    limits (-10.0 170.0)
  end
  begin
     id 4 
     name lfoot
     direction 0.0603448 -0.165796 0.984312   
     length 1.77861   
     axis -90 7.62852e-016 20   XYZ
    dof rx rz
    limits (-45.0 90.0)
           (-70.0 20.0)
  end
  begin
     id 5 
     name ltoes
     direction 1.53577e-011 -4.21876e-011 1   
     length 0.902235   
     axis -90 7.62852e-016 20   XYZ
    dof rx
    limits (-90.0 20.0)
  end
  begin
     id 6 
     name rhipjoint
     direction -0.656778 -0.61817 0.431866   
     length 2.9117  
     axis 0 0 0  XYZ 
  end
  begin
     id 7 
     name rfemur
     direction -0.34202 -0.939693 0   
     length 6.81603   
     axis 0 0 -20   XYZ
    dof rx ry rz
    limits (-160.0 20.0)
           (-70.0 70.0)
           (-70.0 60.0)
  end
  begin
     id 8 
     name rtibia
     direction -0.34202 -0.939693 0   
     length 8.05997   
     axis 0 0 -20   XYZ
    dof rx
    limits (-10.0 170.0)
 end
 begin
     id 9 
     name rfoot
     direction -0.0862404 -0.236944 0.967688   
     length 1.84899  
     axis -90 -7.62852e-016 -20   XYZ
    dof rx rz
    limits (-45.0 90.0)
           (-20.0 70.0)
  end
  begin
     id 10 
     name rtoes
     direction -1.53561e-011 -4.21798e-011 1   
     length 0.931579   
     axis -90 -7.62852e-016 -20   XYZ
    dof rx
    limits (-90.0 20.0)
  end
  begin
     id 11 
     name lowerback
     direction -0.0110203 0.991769 -0.127564   
     length 2.05686   
     axis 0 0 0   XYZ
    dof rx ry rz
    limits (-20.0 45.0)
           (-30.0 30.0)
           (-30.0 30.0)
  end
  begin
     id 12 
     name upperback
     direction 0.0109719 0.99993 -0.00432479   
     length 2.06234   
     axis 0 0 0   XYZ
    dof rx ry rz
    limits (-20.0 45.0)
           (-30.0 30.0)
           (-30.0 30.0)
  end
  begin
     id 13 
     name thorax
     direction 0.0173308 0.998351 0.0547306   
     length 2.09856   
     axis 0 0 0   XYZ
    dof rx ry rz
    limits (-20.0 45.0)
           (-30.0 30.0)
           (-30.0 30.0)
  end
  begin
     id 14 
     name lowerneck
     direction -0.0311736 0.989033 0.144366   
     length 1.98151   
     axis 0 0 0   XYZ
    dof rx ry rz
    limits (-20.0 45.0)
           (-30.0 30.0)
           (-30.0 30.0)
  end
  begin
     id 15 
     name upperneck
     direction 0.0421057 0.975772 -0.214698   
     length 2.01457   
     axis 0 0 0   XYZ
    dof rx ry rz
    limits (-20.0 45.0)
           (-30.0 30.0)
           (-30.0 30.0)
  end
  begin
     id 16
     name head
     direction 0.0136911 0.995958 -0.0887718  
     length 2.03562  
     axis 0 0 0   XYZ
    dof rx ry rz
    limits (-20.0 45.0)
           (-30.0 30.0)
           (-30.0 30.0)
  end
  begin
     id 17 
     name lclavicle
     direction 0.915335 0.396201 0.0720134  
     length 4.16217  
     axis 0 0 0   XYZ
    dof ry rz
    limits (-20.0 10.0)
           (0.0 20.0)
  end
  begin
     id 18 
     name lhumerus
     direction 1 -4.48965e-011 6.383e-018   
     length 4.93042   
     axis -180 -30 -90   XYZ
    dof rx ry rz
    limits (-60.0 90.0)
           (-90.0 90.0)
           (-90.0 90.0)
  end
  begin
     id 19
     name lradius
     direction 1 -4.48972e-011 8.8689e-027   
     length 3.68177   
     axis -180 -30 -90   XYZ
    dof rx
    limits (-10.0 170.0)
  end
  begin
     id 20
     name lwrist
     direction 1 -4.48953e-011 1.17971e-026   
     length 1.84089   
     axis -7.69454e-015 90 90   XYZ
    dof ry
    limits (-180.0 0.0)
 end
  begin
     id 21 
     name lhand
     direction 1 -4.49027e-011 2.35802e-026   
     length 0.721479   
     axis -1.50533e-014 90 90   XYZ
    dof rx rz
    limits (-90.0 90.0)
           (-45.0 45.0)
  end
  begin
     id 22 
     name lfingers
     direction 1 -4.48915e-011 4.72027e-026   
     length 0.581675   
     axis -3.01059e-014 90 90   XYZ
    dof rx
    limits (0.0 90.0)
  end
  begin
     id 23
     name lthumb
     direction 0.707107 -6.34948e-011 0.707107   
     length 0.835172   
     axis -90 45 -5.12164e-014   XYZ
    dof rx rz
    limits (-45.0 45.0)
           (-45.0 45.0)
  end
  begin
     id 24 
     name rclavicle
     direction -0.882781 0.469197 0.0234974   
     length 3.95647  
     axis 0 0 0   XYZ 
    dof ry rz
    limits (-10.0 20.0)
           (-20.0 0.0)
  end
  begin
     id 25 
     name rhumerus
     direction -1 -4.48965e-011 -1.54906e-018  
     length 5.07905   
     axis -180 30 90   XYZ
    dof rx ry rz
    limits (-90.0 60.0)
           (-90.0 90.0)
           (-90.0 90.0)
  end
  begin
     id 26 
     name rradius
     direction -1 -4.48972e-011 5.47489e-027   
     length 3.54394   
     axis -180 30 90   XYZ
    dof rx
    limits (-10.0 170.0)
  end
  begin
     id 27 
     name rwrist
     direction -1 -4.48955e-011 1.17969e-026   
     length 1.77197   
     axis -7.69454e-015 -90 -90   XYZ
    dof ry
    limits (-180.0 0.0)
  end
  begin
     id 28
     name rhand
     direction -1 -4.48982e-011 2.35888e-026   
     length 0.681156   
     axis -1.50533e-014 -90 -90   XYZ
    dof rx rz
    limits (-90.0 90.0)
           (-45.0 45.0)
  end
  begin
     id 29
     name rfingers
     direction -1 -4.48955e-011 4.71877e-026   
     length 0.549165   
     axis -3.01059e-014 -90 -90   XYZ
    dof rx
    limits (0.0 90.0)
  end
  begin
     id 30
     name rthumb
     direction -0.707107 -6.3491e-011 0.707107   
     length 0.788495   
     axis -90 -45 5.12164e-014   XYZ
    dof rx rz
    limits (-45.0 45.0)
           (-45.0 45.0)
  end
:hierarchy
  begin
    root lhipjoint rhipjoint lowerback
    lhipjoint lfemur
    lfemur ltibia
    ltibia lfoot
    lfoot ltoes
    rhipjoint rfemur
    rfemur rtibia
    rtibia rfoot
    rfoot rtoes
    lowerback upperback
    upperback thorax
    thorax lowerneck lclavicle rclavicle
    lowerneck upperneck
    upperneck head
    lclavicle lhumerus
    lhumerus lradius
    lradius lwrist
    lwrist lhand lthumb
    lhand lfingers
    rclavicle rhumerus
    rhumerus rradius
    rradius rwrist
    rwrist rhand rthumb
    rhand rfingers
  end

#!OML:ASF H:\Bending\Project 1\Capture day 1\Session 1\Subject.ASF
:FULLY-SPECIFIED
:DEGREES
97
root -11.9243 17.3282 -16.8192 156.463 84.7951 116.438
lowerback 52.7699 -5.18511 1.91596
upperback 10.0266 -3.01271 0.2342
thorax -9.70706 -0.628929 0.589907
lowerneck -15.6032 -2.68056 -3.66077
upperneck -3.38142 -2.81192 2.30319
head 1.67786 -1.22937 1.20495
rclavicle -6.75868e-015 2.9358e-014
rhumerus 51.3683 10.4695 -74.011
rradius 25.9877
rwrist 5.56723
rhand -19.423 -13.1973
rfingers 7.12502
rthumb 6.89685 -43.0649
lclavicle -6.75868e-015 2.9358e-014
lhumerus 52.3731 -6.78936 81.4852
lradius 28.8529
lwrist 33.9232
lhand -22.0131 8.33023
lfingers 7.12502
lthumb 4.39611 38.2646
rfemur -71.3331 -17.3851 17.8065
rtibia 45.057
rfoot -13.9695 -7.3075
rtoes 6.47972
lfemur -71.9038 -1.92198 -15.5968
ltibia 45.0606
lfoot -11.2701 -2.56689
ltoes -6.30001
98
root -11.9379 17.3237 -16.8108 157.13 84.6208 117.069
lowerback 52.8781 -5.19773 1.97258
upperback 10.051 -2.97089 0.28263
thorax -9.68923 -0.607651 0.599061
lowerneck -15.4346 -2.6883 -3.56255
upperneck -3.48626 -2.84343 2.2067
head 1.60954 -1.24952 1.15509
rclavicle 1.09332e-014 3.95768e-014
rhumerus 51.5748 9.4553 -75.6143
rradius 25.5106
rwrist 5.91666
rhand -18.9521 -12.5113
rfingers 7.12502
rthumb 7.35136 -42.3636
lclavicle 1.09332e-014 3.95768e-014
lhumerus 52.591 -7.11134 81.1317
lradius 29.2646
lwrist 34.309
lhand -21.7265 8.61864
lfingers 7.12502
lthumb 4.67286 38.5471
rfemur -71.3705 -17.2365 17.4577
rtibia 45.2183
rfoot -14.0354 -7.66402
rtoes 6.92195
lfemur -71.9682 -2.06485 -15.6368
ltibia 44.9452
lfoot -11.1935 -2.5596
ltoes -6.57559
99
root -11.9516 17.3213 -16.8026 157.751 84.4657 117.69
lowerback 52.9806 -5.16801 2.02955
upperback 10.0719 -2.87559 0.36924
thorax -9.67292 -0.56517 0.626258
lowerneck -15.2177 -2.67577 -3.43758
upperneck -3.57042 -2.85316 2.01803
head 1.53652 -1.26224 1.07262
rclavicle -2.24627e-014 2.4817e-014
rhumerus 51.9548 8.37396 -77.4529
rradius 24.6834
rwrist 6.53214
rhand -18.6475 -11.9781
rfingers 7.12502
rthumb 7.64537 -41.8199
lclavicle -2.24627e-014 2.4817e-014
lhumerus 52.6226 -7.33307 81.2021
lradius 29.8903
lwrist 34.28
lhand -21.5588 9.06728
lfingers 7.12502
lthumb 4.83478 38.9921
rfemur -71.3265 -17.0485 17.0887
rtibia 45.3249
rfoot -14.0793 -8.07765
rtoes 7.19607
lfemur -71.9727 -2.25523 -15.5984
ltibia 44.8032
lfoot -11.1377 -2.4813
ltoes -6.41986
100
root -11.9652 17.3214 -16.7944 158.202 84.3303 118.169
lowerback 53.0664 -5.08328 2.06361
upperback 10.088 -2.72577 0.494657
thorax -9.65839 -0.501412 0.682205
lowerneck -14.9908 -2.65156 -3.31046
upperneck -3.61011 -2.84749 1.75833
head 1.47484 -1.26957 0.968341
rclavicle -6.36111e-015 -6.94349e-014
rhumerus 52.3058 7.34338 -79.2132
rradius 23.8259
rwrist 7.2126
rhand -18.6372 -11.7376
rfingers 7.12502
rthumb 7.65537 -41.579
lclavicle -6.36111e-015 -6.94349e-014
lhumerus 52.4791 -7.45423 81.7058
lradius 30.6205
lwrist 33.7701
lhand -21.4943 9.57499
lfingers 7.12502
lthumb 4.89704 39.4984
rfemur -71.2263 -16.8396 16.7225
rtibia 45.381
rfoot -14.0952 -8.5197
rtoes 7.25748
lfemur -71.9232 -2.48372 -15.4938
ltibia 44.6373
lfoot -11.1028 -2.32966
ltoes -6.03187
101
root -11.9785 17.3241 -16.7856 158.365 84.2183 118.383
lowerback 53.1279 -4.94901 2.05836
upperback 10.1 -2.53992 0.641766
thorax -9.64526 -0.423849 0.763706
lowerneck -14.7969 -2.62499 -3.21166
upperneck -3.59347 -2.83292 1.48036
head 1.43798 -1.27269 0.863915
rclavicle -2.29099e-014 -4.78326e-016
rhumerus 52.4064 6.50721 -80.5149
rradius 23.3041
rwrist 7.63112
rhand -18.9737 -11.9057
rfingers 7.12502
rthumb 7.33058 -41.7587
lclavicle -2.29099e-014 -4.78326e-016
lhumerus 52.211 -7.50831 82.5032
lradius 31.3385
lwrist 32.8984
lhand -21.5037 10.0726
lfingers 7.12502
lthumb 4.88802 39.9962
rfemur -71.0973 -16.6331 16.386
rtibia 45.3939
rfoot -14.0838 -8.9387
rtoes 7.15657
lfemur -71.8268 -2.72313 -15.3552
ltibia 44.4535
lfoot -11.0859 -2.11778
ltoes -5.76764
102
root -11.9914 17.329 -16.7764 158.189 84.1338 118.277
lowerback 53.1508 -4.74756 1.99887
upperback 10.1138 -2.30655 0.809911
thorax -9.62614 -0.327476 0.871514
lowerneck -14.6433 -2.62054 -3.13915
upperneck -3.54137 -2.84252 1.21934
head 1.42162 -1.28723 0.76815
rclavicle 2.28602e-014 -4.17448e-014
rhumerus 52.4147 5.792 -81.5032
rradius 22.966
rwrist 7.98821
rhand -19.6307 -12.4909
rfingers 7.12502
rthumb 6.69629 -42.365
lclavicle 2.28602e-014 -4.17448e-014
lhumerus 51.8989 -7.60084 83.4179
lradius 31.9471
lwrist 31.8895
lhand -21.5583 10.5441
lfingers 7.12502
lthumb 4.83525 40.469
rfemur -70.9597 -16.453 16.104
rtibia 45.3727
rfoot -14.0542 -9.27354
rtoes 7.02124
lfemur -71.6912 -2.93846 -15.2219
ltibia 44.2618
lfoot -11.0792 -1.8741
ltoes -5.93864
103
root -12.0041 17.3353 -16.7671 157.716 84.0781 117.896
lowerback 53.1381 -4.50968 1.89307
upperback 10.1308 -2.06019 0.973765
thorax -9.60132 -0.225991 0.989658
lowerneck -14.5439 -2.64027 -3.10362
upperneck -3.47621 -2.87721 1.02806
head 1.42183 -1.31186 0.699453
rclavicle 8.34896e-015 -7.90169e-015
rhumerus 52.2854 5.22053 -82.1441
rradius 22.9159
rwrist 8.22189
rhand -20.4723 -13.4448
rfingers 7.12502
rthumb 5.88389 -43.3431
lclavicle 8.34896e-015 -7.90169e-015
lhumerus 51.6126 -7.76809 84.2408
lradius 32.3947
lwrist 30.9655
lhand -21.649 11.0172
lfingers 7.12502
lthumb 4.74767 40.944
rfemur -70.8234 -16.3214 15.8961
rtibia 45.327
rfoot -14.0191 -9.47169
rtoes 6.9974
lfemur -71.5238 -3.1006 -15.1255
ltibia 44.0743
lfoot -11.0726 -1.63772
ltoes -6.63223
104
root -12.0165 17.3422 -16.7582 157.077 84.0469 117.371
lowerback 53.0971 -4.28142 1.76097
upperback 10.1497 -1.84612 1.10843
thorax -9.57342 -0.137767 1.10193
lowerneck -14.502 -2.67283 -3.11
upperneck -3.41856 -2.92114 0.939154
head 1.43277 -1.33749 0.669795
rclavicle 6.91771e-014 1.00386e-014
rhumerus 52.013 4.8096 -82.4863
rradius 23.1734
rwrist 8.32142
rhand -21.3142 -14.6339
rfingers 7.12502
rthumb 5.07101 -44.5532
lclavicle 6.91771e-014 1.00386e-014
lhumerus 51.3882 -7.99923 84.8199
lradius 32.6908
lwrist 30.2597
lhand -21.7915 11.5325
lfingers 7.12502
lthumb 4.61013 41.4623
rfemur -70.6895 -16.257 15.7735
rtibia 45.2678
rfoot -13.9887 -9.50502
rtoes 7.18796
lfemur -71.3329 -3.19757 -15.0794
ltibia 43.9034
lfoot -11.0573 -1.44927
ltoes -7.64427
105
root -12.0289 17.3483 -16.7502 156.443 84.031 116.877
lowerback 53.0216 -4.08221 1.62323
upperback 10.1712 -1.67565 1.21333
thorax -9.54025 -0.0675995 1.20319
lowerneck -14.4947 -2.71191 -3.1358
upperneck -3.38558 -2.97018 0.935806
head 1.44388 -1.36267 0.670288
rclavicle -9.93923e-015 4.70623e-014
rhumerus 51.7234 4.49193 -82.7293
rradius 23.5495
rwrist 8.45034
rhand -21.9993 -15.8569
rfingers 7.12502
rthumb 4.40948 -45.791
lclavicle -9.93923e-015 4.70623e-014
lhumerus 51.2161 -8.29099 85.1242
lradius 32.8987
lwrist 29.7837
lhand -22.0176 12.1109
lfingers 7.12502
lthumb 4.39176 42.0453
rfemur -70.5552 -16.2723 15.739
rtibia 45.2073
rfoot -13.964 -9.37899
rtoes 7.59831
lfemur -71.1269 -3.23764 -15.0773
ltibia 43.7594
lfoot -11.0284 -1.33905
ltoes -8.57546
